<svg width="17" height="16" viewBox="0 0 17 16" fill="none" xmlns="http://www.w3.org/2000/svg">
<g filter="url(#filter0_i_1972_25872)">
<path d="M6.85564 0.0715257C7.03386 0.155688 7.20532 0.251855 7.37678 0.348885C7.41639 0.371157 7.456 0.393429 7.49681 0.416376C7.66776 0.512626 7.83865 0.608958 8.00866 0.706865C8.04775 0.729322 8.08685 0.751778 8.12713 0.774915C8.16188 0.795016 8.19662 0.815117 8.23242 0.835826C8.27383 0.858194 8.30376 0.874362 8.32879 0.887247C8.46122 0.955424 8.62218 0.956544 8.74736 0.875817C8.78648 0.853043 8.8256 0.830268 8.8659 0.806803C8.92776 0.769303 8.92776 0.769303 8.99087 0.731045C9.07669 0.680724 9.16252 0.630408 9.24835 0.580098C9.29054 0.554997 9.33274 0.529897 9.37622 0.504036C9.54362 0.40488 9.71276 0.308995 9.88239 0.213699C9.92282 0.19063 9.92282 0.19063 9.96407 0.167096C10.4101 -0.0855742 11.0076 0.0571997 11.3021 0.476842C11.4512 0.689376 11.563 0.94085 11.6914 1.1756C11.7333 1.25194 11.7753 1.32825 11.8173 1.40453C11.855 1.47304 11.8926 1.54163 11.9302 1.61022C12.0148 1.76465 12.1773 1.85895 12.3533 1.86244C12.3862 1.8631 12.4194 1.86334 12.4531 1.86323C12.5098 1.8639 12.5098 1.8639 12.5676 1.86459C12.6888 1.86602 12.81 1.86667 12.9312 1.86713C13.0898 1.86774 13.2484 1.86915 13.407 1.87103C13.4611 1.87084 13.4611 1.87084 13.5162 1.87065C13.7633 1.87364 13.9986 1.90859 14.2118 2.02804C14.2672 2.05903 14.3148 2.10167 14.3582 2.1479C14.4029 2.19332 14.4453 2.24156 14.4783 2.29612C14.6172 2.52568 14.6203 2.71836 14.5947 3.00191C14.5626 3.28042 14.5413 3.46482 14.5372 3.61551C14.5197 4.26075 15.0222 4.79563 15.6355 4.99685C15.9593 5.11637 16.2389 5.28904 16.4093 5.59433C16.5131 5.83881 16.5337 6.0848 16.4383 6.33412C16.3615 6.49122 16.2788 6.64375 16.1932 6.79622C16.1718 6.83466 16.1504 6.87309 16.1284 6.9127C15.6851 7.70788 15.6851 7.70788 15.5775 7.85698C15.5152 7.95855 15.5152 7.95855 15.555 8.06538C15.5735 8.09953 15.5919 8.13369 15.611 8.16887C15.6275 8.20134 15.644 8.2338 15.661 8.26725C15.6793 8.30079 15.6977 8.33433 15.7166 8.36889C15.7371 8.40657 15.7577 8.44425 15.7789 8.48307C15.8007 8.52265 15.8225 8.56224 15.8449 8.60303C15.8783 8.66398 15.8783 8.66398 15.9123 8.72616C16.0658 9.00585 16.2226 9.28341 16.3834 9.55892C16.6289 10.0036 16.3747 10.5729 15.9509 10.8529C15.7658 10.9753 15.5605 11.0747 15.3693 11.1768C15.2867 11.2213 15.2042 11.266 15.1217 11.3107C15.0475 11.3509 14.9732 11.3908 14.8988 11.4306C14.7386 11.5161 14.6418 11.6842 14.6393 11.8658C14.6389 11.8953 14.6388 11.9251 14.639 11.9554C14.6383 12.0328 14.6376 12.1103 14.6369 12.1877C14.6364 12.3097 14.6363 12.4316 14.6364 12.5535C14.6351 13.5295 14.6351 13.5295 14.3774 13.8209C14.1351 14.0588 13.8425 14.1313 13.5124 14.1312C13.4563 14.1302 13.4563 14.1302 13.3991 14.1292C13.3599 14.1291 13.3206 14.1289 13.2802 14.1287C13.1561 14.128 13.032 14.1265 12.9078 14.1249C12.8232 14.1242 12.7386 14.1237 12.6539 14.1232C12.4862 14.122 12.3184 14.1204 12.1507 14.1185C12.0818 14.1177 12.0206 14.1622 12.0003 14.2281C11.9545 14.3577 11.9013 14.4678 11.8337 14.5871C11.8107 14.6278 11.7877 14.6685 11.764 14.7104C11.7401 14.7522 11.7161 14.7941 11.6914 14.8372C11.6564 14.8992 11.6564 14.8992 11.6208 14.9625C11.5812 15.0321 11.5452 15.0955 11.5121 15.1535C11.1549 15.7786 10.4146 16.0953 9.78882 15.7393C9.72865 15.7062 9.66843 15.6732 9.60817 15.6403C9.09003 15.356 9.09003 15.356 8.88869 15.2289C8.82347 15.1882 8.82347 15.1882 8.75694 15.1466C8.70122 15.1102 8.70122 15.1102 8.64436 15.0731C8.54327 15.0203 8.54327 15.0203 8.44593 15.0633C8.32522 15.1191 8.20817 15.1791 8.09106 15.2421C8.04483 15.267 7.99859 15.2919 7.95095 15.3175C7.903 15.3434 7.85505 15.3694 7.80564 15.3961C7.75849 15.4214 7.71134 15.4467 7.66277 15.4728C7.41095 15.6087 7.16298 15.7483 6.91984 15.8992C6.70852 16.0205 6.48517 16.0141 6.25036 15.9741C5.89291 15.8688 5.68794 15.5336 5.51625 15.2239C5.46618 15.1291 5.41663 15.034 5.36761 14.9386C5.31755 14.843 5.26747 14.7475 5.21734 14.652C5.19572 14.6101 5.1741 14.5683 5.15183 14.5252C5.11006 14.4468 5.06576 14.3698 5.01913 14.2942C4.98547 14.2361 4.97264 14.2139 4.96775 14.1857C4.96128 14.1485 4.93375 14.1176 4.89593 14.1182C4.65844 14.1219 4.42097 14.1244 4.18346 14.1262C4.09496 14.127 4.00647 14.1282 3.91798 14.1296C3.79037 14.1316 3.6628 14.1326 3.53519 14.1333C3.49597 14.1342 3.45675 14.135 3.41635 14.1359C3.15313 14.136 2.94853 14.0851 2.74693 13.9349C2.69976 13.8997 2.65951 13.8563 2.62287 13.8103C2.60417 13.7877 2.58546 13.765 2.56618 13.7417C2.39236 13.4822 2.37374 13.3019 2.38846 12.9984C2.39017 12.9175 2.39171 12.8366 2.39309 12.7557C2.39573 12.629 2.39934 12.5027 2.40587 12.3762C2.41751 12.2441 2.42581 12.15 2.42786 12.0732C2.43817 11.6869 2.12404 11.3722 1.76198 11.2372C1.65241 11.195 1.5532 11.1393 1.45178 11.0804C1.41959 11.0625 1.3874 11.0445 1.35423 11.0261C1.32343 11.0089 1.29263 10.9917 1.2609 10.974C1.22866 10.9566 1.19641 10.9393 1.16319 10.9214C0.655672 10.6352 0.41221 9.98831 0.665715 9.46369C0.7187 9.35404 0.781408 9.24329 0.847634 9.12558C0.868333 9.08859 0.889033 9.05161 0.91036 9.0135C1.0181 8.82169 1.1269 8.63051 1.23702 8.44006C1.25603 8.4069 1.27505 8.37375 1.29463 8.33958C1.34668 8.25207 1.34668 8.25207 1.42904 8.13557C1.48377 8.04481 1.48377 8.04481 1.43985 7.94839C1.3872 7.83379 1.33071 7.72294 1.27065 7.61204C1.24765 7.56955 1.22465 7.52706 1.20096 7.48328C1.177 7.43928 1.15303 7.39529 1.12835 7.34996C1.10503 7.30677 1.08171 7.26358 1.05768 7.21908C0.92812 6.9804 0.794518 6.7457 0.650949 6.51515C0.393377 6.06034 0.588219 5.46352 1.02145 5.17111C1.2137 5.04135 1.42926 4.93715 1.62739 4.83082C1.71022 4.78596 1.79299 4.741 1.87574 4.696C1.95032 4.65551 2.02503 4.61527 2.09975 4.57503C2.14607 4.5502 2.17495 4.53471 2.19947 4.52059C2.29637 4.46476 2.36402 4.36485 2.3601 4.25309C2.36039 4.21753 2.36068 4.18197 2.36097 4.14533C2.36071 4.10677 2.36046 4.06821 2.36019 4.02848C2.36092 3.94686 2.36165 3.86524 2.36239 3.78362C2.36281 3.65492 2.36296 3.52623 2.36289 3.39754C2.36303 3.27334 2.36418 3.14917 2.36539 3.02498C2.36488 2.9679 2.36488 2.9679 2.36436 2.90966C2.36734 2.65018 2.42158 2.4488 2.56746 2.25183C2.60965 2.19487 2.66184 2.14631 2.71644 2.1011C2.74341 2.07805 2.77037 2.05499 2.79816 2.03124C3.03191 1.87014 3.22246 1.8856 3.4949 1.90434C3.8561 1.93819 4.05644 1.95696 4.23392 1.94781C4.78632 1.91933 5.26976 1.53527 5.42788 1.00521C5.47485 0.853994 5.54055 0.733802 5.62233 0.598459C5.64388 0.561676 5.66543 0.524893 5.68763 0.486995C5.97465 0.0751018 6.37189 -0.114279 6.85564 0.0715257Z" fill="url(#paint0_linear_1972_25872)"/>
</g>
<path d="M11.7023 5.5827C11.8331 5.64259 11.9307 5.70665 11.9929 5.8388C12.0101 5.95956 11.9951 6.05268 11.9566 6.16806C11.8934 6.25242 11.8934 6.25242 11.813 6.33887C11.7834 6.37085 11.7537 6.40282 11.7232 6.43577C11.5722 6.59409 11.4198 6.75085 11.2658 6.90618C11.2306 6.94174 11.1955 6.9773 11.1604 7.01286C11.0661 7.10825 10.9717 7.20353 10.8773 7.29876C10.8182 7.3584 10.7591 7.41806 10.7 7.47773C10.5147 7.66485 10.3293 7.8519 10.1438 8.03884C9.93035 8.25392 9.71717 8.46923 9.5042 8.68475C9.33888 8.85201 9.17335 9.01907 9.00766 9.18596C8.90896 9.28539 8.81035 9.3849 8.71195 9.48464C8.6196 9.57824 8.52698 9.67158 8.43417 9.76473C8.38411 9.81509 8.33432 9.86573 8.28454 9.91638C8.10796 10.093 7.96016 10.2338 7.71035 10.2884C7.3878 10.2235 7.10314 9.81039 6.87373 9.5789C6.8327 9.5376 6.79166 9.49631 6.75061 9.45502C6.66521 9.36908 6.57988 9.28307 6.49459 9.19701C6.38517 9.08662 6.27559 8.97639 6.16595 8.86621C6.08146 8.78126 5.99705 8.69622 5.91266 8.61115C5.87226 8.57044 5.83183 8.52976 5.79137 8.4891C5.73512 8.43255 5.67898 8.37588 5.62287 8.31917C5.57493 8.27085 5.57493 8.27085 5.52602 8.22156C5.41558 8.1033 5.4027 8.01774 5.40388 7.85483C5.42695 7.71868 5.50194 7.6533 5.59859 7.55829C5.70272 7.50586 5.77345 7.5105 5.88924 7.52171C6.12088 7.64844 6.29449 7.84737 6.47821 8.03447C6.51372 8.07037 6.54925 8.10625 6.58479 8.14211C6.67777 8.23602 6.77053 8.33014 6.86324 8.42431C6.95809 8.52058 7.05316 8.61664 7.14821 8.71272C7.33428 8.90087 7.52011 9.08925 7.70581 9.27778C7.91301 9.10435 8.10366 8.9185 8.29352 8.72613C8.34326 8.67596 8.393 8.62579 8.44274 8.57562C8.49572 8.52214 8.54866 8.46862 8.60159 8.41509C8.71219 8.30321 8.82294 8.19148 8.9337 8.07977C9.16864 7.84279 9.40341 7.60566 9.63818 7.36851C9.89205 7.11205 10.146 6.85562 10.4 6.59937C10.5101 6.48836 10.6201 6.37726 10.73 6.26609C10.8143 6.18079 10.8988 6.09561 10.9833 6.01041C11.0288 5.96431 11.0288 5.96431 11.0752 5.91728C11.1032 5.88912 11.1311 5.86097 11.1599 5.83196C11.1841 5.80753 11.2083 5.78309 11.2332 5.75792C11.3928 5.60731 11.4765 5.55877 11.7023 5.5827Z" fill="#FAFCFE"/>
<defs>
<filter id="filter0_i_1972_25872" x="-0.4646" y="-1" width="16.9641" height="17" filterUnits="userSpaceOnUse" color-interpolation-filters="sRGB">
<feFlood flood-opacity="0" result="BackgroundImageFix"/>
<feBlend mode="normal" in="SourceGraphic" in2="BackgroundImageFix" result="shape"/>
<feColorMatrix in="SourceAlpha" type="matrix" values="0 0 0 0 0 0 0 0 0 0 0 0 0 0 0 0 0 0 127 0" result="hardAlpha"/>
<feOffset dx="-1" dy="-1"/>
<feGaussianBlur stdDeviation="1"/>
<feComposite in2="hardAlpha" operator="arithmetic" k2="-1" k3="1"/>
<feColorMatrix type="matrix" values="0 0 0 0 0 0 0 0 0 0 0 0 0 0 0 0 0 0 0.1 0"/>
<feBlend mode="normal" in2="shape" result="effect1_innerShadow_1972_25872"/>
</filter>
<linearGradient id="paint0_linear_1972_25872" x1="0.790909" y1="10.8" x2="16.5" y2="10.8" gradientUnits="userSpaceOnUse">
<stop stop-color="#7BD0FF"/>
<stop offset="1" stop-color="#027BBD"/>
</linearGradient>
</defs>
</svg>
