<svg width="19" height="24" viewBox="0 0 19 24" fill="none" xmlns="http://www.w3.org/2000/svg">
<path fill-rule="evenodd" clip-rule="evenodd" d="M3.2077 6.40164V9.171H2.74944C1.23097 9.171 0 10.4108 0 11.9402V20.7623C0 22.2919 1.23097 23.5317 2.74944 23.5317H15.5802C17.0988 23.5317 18.3297 22.2919 18.3297 20.7623V11.9402C18.3297 10.4108 17.0988 9.171 15.5802 9.171H15.122V6.40164C15.122 4.81021 14.4944 3.28401 13.3772 2.15875C12.26 1.03349 10.7448 0.401367 9.16483 0.401367C7.5849 0.401367 6.06967 1.03349 4.9525 2.15875C3.83532 3.28401 3.2077 4.81021 3.2077 6.40164ZM9.16483 3.17072C8.31406 3.17072 7.49821 3.51116 6.89666 4.11701C6.29509 4.72297 5.95714 5.54467 5.95714 6.40164V9.171H12.3725V6.40164C12.3725 5.54467 12.0346 4.72297 11.433 4.11701C10.8315 3.51116 10.0156 3.17072 9.16483 3.17072ZM9.45858 19.2832C9.91285 19.2832 10.2811 18.9134 10.2811 18.4572V17.2995C11.0186 16.871 11.5148 16.0701 11.5148 15.1528C11.5148 13.7842 10.4101 12.6746 9.04734 12.6746C7.68455 12.6746 6.57988 13.7842 6.57988 15.1528C6.57988 16.0701 7.07609 16.871 7.81361 17.2995V18.4572C7.81361 18.9134 8.18182 19.2832 8.63609 19.2832H9.45858Z" fill="#2C2C2C"/>
</svg>
