<svg width="52" height="32" viewBox="0 0 52 32" fill="none" xmlns="http://www.w3.org/2000/svg">
<path d="M31.074 15.9725C31.074 24.4977 24.1629 31.408 15.6382 31.408C7.11349 31.408 0.203125 24.4977 0.203125 15.9725C0.203125 7.44816 7.1134 0.537109 15.6382 0.537109C24.1629 0.537109 31.074 7.44816 31.074 15.9725Z" fill="#D9222A"/>
<path d="M36.3619 0.537109C32.3738 0.537109 28.7396 2.05018 26.0002 4.53278C25.4424 5.03865 24.9214 5.58511 24.4416 6.16623H27.5602C27.9865 6.68466 28.3792 7.23001 28.7369 7.80106H23.265C22.9371 8.32594 22.6395 8.87129 22.3757 9.43555H29.6257C29.8734 9.96516 30.0919 10.5101 30.2794 11.0697H21.7223C21.5439 11.602 21.3937 12.147 21.2737 12.7042H30.7274C30.9543 13.7575 31.075 14.8511 31.075 15.9725C31.075 17.6866 30.7952 19.3357 30.2793 20.8757H21.7222C21.9092 21.4356 22.1278 21.981 22.3754 22.5101H29.6257C29.3613 23.0745 29.0643 23.6198 28.736 24.145H23.2649C23.6221 24.7151 24.0155 25.2611 24.4416 25.7784H27.5595C27.0805 26.3607 26.5591 26.9078 26.0005 27.4133C28.74 29.8955 32.3738 31.4079 36.3619 31.4079C44.8867 31.408 51.7978 24.4977 51.7978 15.9725C51.7978 7.4485 44.8867 0.537109 36.3619 0.537109Z" fill="#EE9F2D"/>
<path d="M49.7393 24.576C49.7393 24.3008 49.9621 24.0771 50.2377 24.0771C50.5132 24.0771 50.7361 24.3008 50.7361 24.576C50.7361 24.8511 50.5132 25.0747 50.2377 25.0747C49.9621 25.0747 49.7393 24.8511 49.7393 24.576ZM50.2377 24.955C50.447 24.955 50.6167 24.7852 50.6167 24.576C50.6167 24.3663 50.4469 24.1973 50.2377 24.1973C50.028 24.1973 49.859 24.3664 49.859 24.576C49.859 24.7852 50.0281 24.955 50.2377 24.955ZM50.1703 24.7952H50.0683V24.357H50.2531C50.2918 24.357 50.3312 24.357 50.3653 24.3788C50.4008 24.4028 50.4208 24.4451 50.4208 24.4888C50.4208 24.5379 50.3917 24.5837 50.3448 24.6017L50.4255 24.7952H50.3123L50.2453 24.6217H50.1704V24.7952H50.1703ZM50.1703 24.5466H50.2269C50.2481 24.5466 50.2703 24.5484 50.2893 24.538C50.3061 24.5272 50.3148 24.5071 50.3148 24.4877C50.3148 24.471 50.3044 24.4515 50.29 24.4433C50.2721 24.4322 50.2438 24.4346 50.2248 24.4346H50.1703V24.5466Z" fill="white"/>
<path d="M12.0349 17.6628C11.859 17.6424 11.7817 17.637 11.6609 17.637C10.711 17.637 10.2302 17.9627 10.2302 18.6059C10.2302 19.0025 10.4648 19.2547 10.831 19.2547C11.5137 19.2547 12.0055 18.6048 12.0349 17.6628ZM13.2535 20.5001H11.8651L11.897 19.8401C11.4734 20.3617 10.9085 20.6097 10.1406 20.6097C9.23227 20.6097 8.60962 19.9003 8.60962 18.8702C8.60962 17.3203 9.69274 16.416 11.5519 16.416C11.7418 16.416 11.9855 16.4331 12.2348 16.465C12.2867 16.2551 12.3004 16.1652 12.3004 16.0523C12.3004 15.6302 12.0083 15.4729 11.2255 15.4729C10.4058 15.4637 9.72963 15.6682 9.45197 15.7596C9.46951 15.6539 9.68414 14.3271 9.68414 14.3271C10.5193 14.0823 11.0699 13.9902 11.6898 13.9902C13.1286 13.9902 13.8908 14.6363 13.8894 15.8572C13.8922 16.1844 13.838 16.5881 13.7536 17.1188C13.6082 18.0416 13.2961 20.0183 13.2535 20.5001Z" fill="white"/>
<path d="M7.9065 20.4997H6.23082L7.19063 14.4808L5.04735 20.4997H3.90549L3.7643 14.5152L2.75539 20.4997H1.18677L2.49699 12.6699H4.9065L5.05268 17.0525L6.52241 12.6699H9.20244L7.9065 20.4997Z" fill="white"/>
<path d="M38.4324 17.6628C38.2572 17.6424 38.1795 17.637 38.059 17.637C37.1096 17.637 36.6288 17.9627 36.6288 18.6059C36.6288 19.0025 36.8631 19.2547 37.2292 19.2547C37.9119 19.2547 38.4041 18.6048 38.4324 17.6628ZM39.6521 20.5001H38.2637L38.2951 19.8401C37.8717 20.3617 37.3063 20.6097 36.5392 20.6097C35.6306 20.6097 35.0085 19.9003 35.0085 18.8702C35.0085 17.3203 36.091 16.416 37.9505 16.416C38.1404 16.416 38.3836 16.4331 38.6327 16.465C38.6846 16.2551 38.6983 16.1652 38.6983 16.0523C38.6983 15.6302 38.4066 15.4729 37.6237 15.4729C36.804 15.4637 36.1286 15.6682 35.8499 15.7596C35.8674 15.6539 36.0828 14.3271 36.0828 14.3271C36.9179 14.0823 37.4683 13.9902 38.0875 13.9902C39.527 13.9902 40.2892 14.6363 40.2877 15.8572C40.2905 16.1844 40.2364 16.5881 40.1519 17.1188C40.0071 18.0416 39.6944 20.0183 39.6521 20.5001Z" fill="white"/>
<path d="M20.7016 20.4026C20.243 20.547 19.8855 20.6089 19.4978 20.6089C18.6411 20.6089 18.1736 20.1166 18.1736 19.2101C18.1614 18.9288 18.2968 18.1886 18.4033 17.5129C18.5 16.9181 19.1298 13.168 19.1298 13.168H20.7955L20.6009 14.1317H21.607L21.3798 15.662H20.3701C20.1767 16.873 19.9011 18.3814 19.898 18.5813C19.898 18.9095 20.0731 19.0528 20.4716 19.0528C20.6626 19.0528 20.8105 19.0334 20.9234 18.9926L20.7016 20.4026Z" fill="white"/>
<path d="M25.8071 20.3516C25.235 20.5265 24.6828 20.6111 24.0978 20.6096C22.2332 20.6078 21.2612 19.634 21.2612 17.7691C21.2612 15.5925 22.4977 13.9902 24.1762 13.9902C25.5495 13.9902 26.4266 14.8874 26.4266 16.2944C26.4266 16.7612 26.3664 17.217 26.2213 17.8604H22.9043C22.7921 18.7841 23.3833 19.1689 24.3521 19.1689C24.9484 19.1689 25.4861 19.0461 26.0841 18.768L25.8071 20.3516ZM24.8709 16.5767C24.8802 16.4441 25.0476 15.4402 24.0959 15.4402C23.5653 15.4402 23.1858 15.8447 23.0314 16.5767H24.8709Z" fill="white"/>
<path d="M14.2577 16.1454C14.2577 16.9508 14.6483 17.5063 15.534 17.9233C16.2126 18.2421 16.3175 18.3368 16.3175 18.6258C16.3175 19.0228 16.0183 19.202 15.3552 19.202C14.8553 19.202 14.3903 19.124 13.854 18.9508C13.854 18.9508 13.6336 20.3542 13.6235 20.4213C14.0045 20.5044 14.3441 20.5814 15.3673 20.6097C17.1355 20.6097 17.9521 19.9365 17.9521 18.4815C17.9521 17.6065 17.6102 17.0931 16.7708 16.7072C16.0682 16.3847 15.9876 16.3127 15.9876 16.0154C15.9876 15.6711 16.266 15.4955 16.8077 15.4955C17.1366 15.4955 17.5859 15.5306 18.0116 15.5911L18.2502 14.1142C17.8163 14.0454 17.1585 13.9902 16.7755 13.9902C14.9008 13.9903 14.2519 14.9695 14.2577 16.1454Z" fill="white"/>
<path d="M33.956 14.1571C34.4214 14.1571 34.8553 14.2793 35.4533 14.5803L35.7274 12.8809C35.482 12.7845 34.6178 12.2188 33.8858 12.2188C32.7644 12.2188 31.8164 12.7752 31.1496 13.6935C30.1772 13.3714 29.7774 14.0224 29.2873 14.6709L28.8519 14.7723C28.8848 14.5588 28.9146 14.3466 28.9045 14.132H27.3657C27.1553 16.1026 26.7827 18.0985 26.4911 20.0717L26.415 20.4996H28.0915C28.3713 18.6815 28.5246 17.5175 28.6178 16.7297L29.2491 16.3785C29.3434 16.0278 29.6385 15.9092 30.2308 15.9235C30.1535 16.3391 30.1119 16.7762 30.1119 17.2292C30.1119 19.3123 31.2358 20.6092 33.0398 20.6092C33.5045 20.6092 33.9033 20.548 34.5207 20.3807L34.8155 18.5956C34.2602 18.8691 33.8045 18.9977 33.3917 18.9977C32.4175 18.9977 31.8281 18.2786 31.8281 17.0901C31.8282 15.366 32.7049 14.1571 33.956 14.1571Z" fill="white"/>
<path d="M8.39273 20.0347H6.71672L7.6773 14.0165L5.53393 20.0347H4.39174L4.25054 14.0509L3.24163 20.0347H1.6731L2.98332 12.2061H5.39282L5.46058 17.0526L7.08613 12.2061H9.68877L8.39273 20.0347Z" fill="white"/>
<path d="M48.1434 12.6699L47.7718 14.9322C47.3136 14.3292 46.8213 13.8928 46.1714 13.8928C45.3258 13.8928 44.5562 14.5338 44.0524 15.4771C43.3509 15.3316 42.6253 15.0848 42.6253 15.0848L42.625 15.0905C42.6816 14.5631 42.7042 14.2414 42.6991 14.1321H41.1599C40.9503 16.1027 40.5777 18.0986 40.2864 20.0718L40.2097 20.4997H41.8858C42.1122 19.0296 42.2856 17.8089 42.4132 16.8408C42.9857 16.3234 43.2724 15.872 43.851 15.9021C43.5949 16.5216 43.4447 17.2353 43.4447 17.9673C43.4447 19.5592 44.2501 20.6093 45.4683 20.6093C46.0824 20.6093 46.5536 20.3976 47.0133 19.9067L46.9348 20.4987H48.5199L49.7962 12.67H48.1434V12.6699ZM46.0477 19.0281C45.4773 19.0281 45.1893 18.606 45.1893 17.773C45.1893 16.5215 45.7285 15.634 46.4887 15.634C47.0645 15.634 47.3762 16.0729 47.3762 16.8816C47.3762 18.1438 46.8284 19.0281 46.0477 19.0281Z" fill="white"/>
<path d="M12.516 17.1981C12.3404 17.1778 12.2627 17.1724 12.1423 17.1724C11.1925 17.1724 10.712 17.498 10.712 18.1411C10.712 18.537 10.9466 18.7901 11.3121 18.7901C11.9954 18.79 12.4874 18.1401 12.516 17.1981ZM13.7352 20.0344H12.3468L12.3783 19.3754C11.9552 19.896 11.3895 20.145 10.6223 20.145C9.7137 20.145 9.09131 19.4356 9.09131 18.4055C9.09131 16.8549 10.1741 15.9512 12.0336 15.9512C12.2235 15.9512 12.4672 15.9684 12.7162 16.0003C12.7681 15.7904 12.7818 15.7005 12.7818 15.5869C12.7818 15.1648 12.4901 15.0083 11.7073 15.0083C10.8872 14.999 10.2114 15.2036 9.9334 15.2938C9.95094 15.1885 10.1656 13.8632 10.1656 13.8632C11.0004 13.6175 11.5517 13.5254 12.1708 13.5254C13.61 13.5254 14.3725 14.1718 14.3711 15.3917C14.3736 15.7203 14.3192 16.1237 14.2349 16.6536C14.0899 17.5757 13.7776 19.5535 13.7352 20.0344Z" fill="white"/>
<path d="M36.2117 12.4164L35.9373 14.1162C35.3396 13.8155 34.9054 13.6931 34.4404 13.6931C33.1892 13.6931 32.3121 14.9019 32.3121 16.6259C32.3121 17.8144 32.9018 18.5332 33.8758 18.5332C34.2885 18.5332 34.7439 18.4049 35.2992 18.1312L35.0051 19.9155C34.3873 20.0838 33.989 20.1451 33.5239 20.1451C31.7202 20.1451 30.5959 18.8481 30.5959 16.765C30.5959 13.966 32.1487 12.0098 34.3698 12.0098C35.1014 12.0098 35.9659 12.32 36.2117 12.4164Z" fill="white"/>
<path d="M38.9134 17.1981C38.7378 17.1778 38.6604 17.1724 38.5396 17.1724C37.5902 17.1724 37.1093 17.498 37.1093 18.1411C37.1093 18.537 37.344 18.7901 37.7098 18.7901C38.3924 18.79 38.8847 18.1401 38.9134 17.1981ZM40.1325 20.0344H38.7438L38.7757 19.3754C38.3522 19.896 37.7868 20.145 37.0197 20.145C36.1114 20.145 35.4888 19.4356 35.4888 18.4055C35.4888 16.8549 36.5719 15.9512 38.4306 15.9512C38.6209 15.9512 38.8642 15.9684 39.1136 16.0003C39.1652 15.7904 39.1791 15.7005 39.1791 15.5869C39.1791 15.1648 38.8874 15.0083 38.1047 15.0083C37.2849 14.999 36.6088 15.2036 36.3307 15.2938C36.3482 15.1885 36.5632 13.8632 36.5632 13.8632C37.3981 13.6175 37.9491 13.5254 38.5682 13.5254C40.0078 13.5254 40.7699 14.1718 40.7681 15.3917C40.7709 15.7203 40.7168 16.1237 40.6323 16.6536C40.4876 17.5757 40.1745 19.5535 40.1325 20.0344Z" fill="white"/>
<path d="M21.1818 19.9384C20.7228 20.0828 20.3653 20.1455 19.978 20.1455C19.1213 20.1455 18.6538 19.6532 18.6538 18.7467C18.6419 18.4647 18.7775 17.7251 18.8838 17.0495C18.9801 16.4539 19.61 12.7041 19.61 12.7041H21.2754L21.0811 13.6682H21.9359L21.7084 15.1978H20.8507C20.6572 16.4096 20.3809 17.9169 20.3781 18.1171C20.3781 18.4465 20.5536 18.5886 20.9517 18.5886C21.1427 18.5886 21.2903 18.57 21.4035 18.5292L21.1818 19.9384Z" fill="white"/>
<path d="M26.2891 19.8871C25.7172 20.062 25.1644 20.1461 24.5797 20.1451C22.7151 20.1433 21.7432 19.1695 21.7432 17.3046C21.7432 15.1273 22.9796 13.5254 24.6581 13.5254C26.0315 13.5254 26.9085 14.4222 26.9085 15.8299C26.9085 16.2972 26.8484 16.7528 26.7036 17.396H23.3866C23.2744 18.3196 23.8656 18.7049 24.8344 18.7049C25.4303 18.7049 25.9684 18.5816 26.5661 18.3028L26.2891 19.8871ZM25.3526 16.1112C25.3625 15.9789 25.5296 14.9747 24.5775 14.9747C24.0473 14.9747 23.6679 15.3803 23.5134 16.1112H25.3526Z" fill="white"/>
<path d="M14.7394 15.6808C14.7394 16.4862 15.1299 17.0409 16.0156 17.4586C16.6943 17.7776 16.7992 17.8725 16.7992 18.1613C16.7992 18.5583 16.4997 18.7374 15.8371 18.7374C15.337 18.7374 14.8719 18.6593 14.3351 18.4862C14.3351 18.4862 14.1155 19.8896 14.1055 19.9567C14.4856 20.0399 14.8256 20.1158 15.8489 20.1451C17.6174 20.1451 18.4337 19.4719 18.4337 18.0172C18.4337 17.1418 18.0922 16.6285 17.2524 16.2427C16.5501 15.9194 16.4688 15.8485 16.4688 15.5508C16.4688 15.2068 16.7479 15.0298 17.2893 15.0298C17.6179 15.0298 18.0672 15.066 18.4935 15.1265L18.7318 13.6493C18.2982 13.5805 17.6404 13.5254 17.2574 13.5254C15.3825 13.5254 14.734 14.5039 14.7394 15.6808Z" fill="white"/>
<path d="M49.0053 20.0347H47.4198L47.4986 19.442C47.0389 19.9336 46.5678 20.1454 45.9537 20.1454C44.7355 20.1454 43.9304 19.0952 43.9304 17.5033C43.9304 15.3854 45.1791 13.6001 46.657 13.6001C47.307 13.6001 47.7988 13.8656 48.2567 14.4683L48.6286 12.2061H50.2814L49.0053 20.0347ZM46.5334 18.5635C47.3138 18.5635 47.8619 17.6793 47.8619 16.4178C47.8619 15.6091 47.5499 15.1702 46.9741 15.1702C46.2142 15.1702 45.6743 16.0573 45.6743 17.3092C45.6743 18.1422 45.963 18.5635 46.5334 18.5635Z" fill="white"/>
<path d="M41.6436 13.6682C41.4337 15.6388 41.0611 17.6349 40.7698 19.6069L40.6931 20.0348H42.3691C42.9686 16.1416 43.1137 15.3813 44.0535 15.4766C44.2033 14.6797 44.482 13.9818 44.6898 13.6296C43.9879 13.4834 43.5959 13.8801 43.0828 14.6335C43.1233 14.3078 43.1975 13.9914 43.1828 13.6683H41.6436" fill="white"/>
<path d="M27.8473 13.6682C27.637 15.6388 27.2644 17.6349 26.9731 19.6069L26.8967 20.0348H28.5735C29.1723 16.1416 29.317 15.3813 30.2564 15.4766C30.4069 14.6797 30.6856 13.9818 30.8927 13.6296C30.1915 13.4834 29.7991 13.8801 29.2865 14.6335C29.327 14.3078 29.4004 13.9914 29.3864 13.6683H27.8473" fill="white"/>
<path d="M49.7393 19.5367C49.7393 19.2605 49.9625 19.0381 50.2376 19.0381C50.5132 19.0381 50.736 19.2605 50.736 19.5367C50.736 19.8116 50.5132 20.0352 50.2376 20.0352C49.9624 20.0352 49.7393 19.8116 49.7393 19.5367ZM50.2376 19.9155C50.4473 19.9155 50.6164 19.7457 50.6164 19.5368C50.6164 19.3276 50.4472 19.1578 50.2376 19.1578C50.0284 19.1578 49.8586 19.3277 49.8586 19.5368C49.8585 19.7457 50.0284 19.9155 50.2376 19.9155ZM50.1702 19.7546H50.0681V19.3176H50.2532C50.2916 19.3176 50.3314 19.3183 50.3647 19.3395C50.4005 19.3638 50.4209 19.4053 50.4209 19.449C50.4209 19.4985 50.3919 19.5447 50.3445 19.5623L50.4255 19.7545H50.3119L50.245 19.5819H50.1701L50.1702 19.7546ZM50.1702 19.5071H50.2264C50.2475 19.5071 50.2705 19.5086 50.2891 19.4985C50.3059 19.4877 50.3145 19.4673 50.3145 19.4479C50.3145 19.4317 50.3045 19.4125 50.2898 19.4029C50.2723 19.3929 50.2432 19.3957 50.2242 19.3957H50.1701L50.1702 19.5071Z" fill="white"/>
</svg>
