<svg width="101" height="28" viewBox="0 0 101 28" fill="none" xmlns="http://www.w3.org/2000/svg">
<path d="M17.7919 1.92127C16.5369 1.05844 14.8991 0.625977 12.8786 0.625977H5.05633C4.43692 0.625977 4.09472 0.935752 4.02972 1.55456L0.852015 21.5015C0.81899 21.6974 0.868005 21.8766 0.99861 22.0395C1.12847 22.2027 1.2918 22.2838 1.48741 22.2838H5.20292C5.8546 22.2838 6.21279 21.9748 6.27854 21.3551L7.15841 15.9776C7.19054 15.717 7.30515 15.5051 7.50076 15.3419C7.69622 15.179 7.94069 15.0725 8.23403 15.0236C8.52737 14.9752 8.80397 14.9508 9.06518 14.9508C9.32564 14.9508 9.63512 14.9673 9.99421 14.9997C10.3524 15.0323 10.5807 15.0481 10.6786 15.0481C13.4814 15.0481 15.6813 14.2583 17.2786 12.6772C18.8752 11.0966 19.6744 8.90489 19.6744 6.10152C19.6744 4.17876 19.0464 2.78544 17.7919 1.92127ZM13.7587 7.91056C13.5953 9.05149 13.1721 9.80075 12.4877 10.1594C11.8031 10.5185 10.8254 10.6969 9.55443 10.6969L7.94099 10.7459L8.77229 5.51469C8.83714 5.1565 9.04889 4.97718 9.40768 4.97718H10.3369C11.6399 4.97718 12.5857 5.16502 13.1724 5.5392C13.7587 5.91428 13.9543 6.70508 13.7587 7.91056Z" fill="#003087"/>
<path d="M100.34 0.625977H96.7222C96.3628 0.625977 96.1512 0.805297 96.0866 1.16379L92.9086 21.5015L92.8596 21.5993C92.8596 21.7631 92.9249 21.9171 93.0555 22.0639C93.1852 22.2103 93.3489 22.2837 93.5442 22.2837H96.7712C97.3895 22.2837 97.7319 21.9746 97.7979 21.3549L100.976 1.35895V1.31038C100.975 0.854162 100.763 0.625977 100.34 0.625977Z" fill="#009CDE"/>
<path d="M56.6332 8.49691C56.6332 8.33432 56.5676 8.17921 56.4381 8.03276C56.3073 7.88617 56.1604 7.8125 55.998 7.8125H52.2335C51.8742 7.8125 51.581 7.97628 51.3535 8.3013L46.1712 15.9284L44.0203 8.59493C43.8567 8.07371 43.4983 7.8125 42.9447 7.8125H39.2776C39.1142 7.8125 38.9675 7.88602 38.8379 8.03276C38.7072 8.17921 38.6423 8.33447 38.6423 8.49691C38.6423 8.56266 38.9602 9.52366 39.5956 11.3814C40.231 13.2395 40.9155 15.244 41.6489 17.3954C42.3824 19.5462 42.7649 20.6875 42.7978 20.8171C40.125 24.4678 38.7889 26.4234 38.7889 26.6837C38.7889 27.1078 39.0007 27.3194 39.4245 27.3194H43.189C43.5475 27.3194 43.8407 27.1568 44.069 26.8308L56.5358 8.83911C56.6007 8.77425 56.6332 8.66068 56.6332 8.49691Z" fill="#003087"/>
<path d="M91.6889 7.8111H87.9731C87.5165 7.8111 87.2402 8.34891 87.1425 9.42454C86.2942 8.12148 84.747 7.46875 82.4977 7.46875C80.151 7.46875 78.1542 8.34891 76.5088 10.1089C74.8627 11.8691 74.04 13.9391 74.04 16.3181C74.04 18.2414 74.6021 19.7731 75.7264 20.9134C76.8509 22.055 78.3582 22.6246 80.2492 22.6246C81.194 22.6246 82.1555 22.4287 83.1332 22.0379C84.1111 21.6469 84.8764 21.1256 85.4314 20.4735C85.4314 20.5062 85.3982 20.6527 85.3335 20.9133C85.2677 21.1745 85.2356 21.3704 85.2356 21.5C85.2356 22.0221 85.4469 22.2821 85.8713 22.2821H89.2449C89.8632 22.2821 90.2223 21.9731 90.3199 21.3534L92.3246 8.59339C92.3567 8.39778 92.3078 8.21876 92.1778 8.05558C92.0471 7.89284 91.8845 7.8111 91.6889 7.8111ZM85.309 17.4424C84.4778 18.2573 83.4757 18.6645 82.3024 18.6645C81.3568 18.6645 80.5915 18.4041 80.0045 17.8823C79.4177 17.3617 79.1244 16.6446 79.1244 15.7312C79.1244 14.526 79.5317 13.5069 80.3467 12.6758C81.1607 11.8446 82.1719 11.429 83.378 11.429C84.2897 11.429 85.0476 11.698 85.6512 12.2357C86.2537 12.7735 86.5558 13.5153 86.5558 14.4604C86.5557 15.6336 86.14 16.628 85.309 17.4424Z" fill="#009CDE"/>
<path d="M36.1509 7.8111H32.4353C31.9784 7.8111 31.7019 8.34891 31.604 9.42454C30.724 8.12148 29.1757 7.46875 26.9595 7.46875C24.6128 7.46875 22.6162 8.34891 20.9705 10.1089C19.3243 11.8691 18.5017 13.9391 18.5017 16.3181C18.5017 18.2414 19.064 19.7731 20.1885 20.9134C21.313 22.055 22.82 22.6246 24.7107 22.6246C25.6228 22.6246 26.5686 22.4287 27.5462 22.0379C28.5239 21.6469 29.3062 21.1256 29.8929 20.4735C29.7621 20.8646 29.6973 21.2069 29.6973 21.5C29.6973 22.0221 29.909 22.2821 30.3328 22.2821H33.7061C34.3249 22.2821 34.6839 21.9731 34.7817 21.3534L36.7861 8.59339C36.8182 8.39778 36.7694 8.21876 36.6395 8.05558C36.509 7.89284 36.3463 7.8111 36.1509 7.8111ZM29.7708 17.4666C28.9395 18.2661 27.9205 18.6645 26.7153 18.6645C25.7696 18.6645 25.0118 18.4041 24.4418 17.8823C23.8712 17.3617 23.5862 16.6446 23.5862 15.7312C23.5862 14.526 23.9934 13.5069 24.8086 12.6758C25.6228 11.8446 26.6333 11.429 27.8397 11.429C28.7518 11.429 29.5096 11.698 30.1131 12.2357C30.7157 12.7735 31.0175 13.5153 31.0175 14.4604C31.0175 15.6664 30.6019 16.6689 29.7708 17.4666Z" fill="#003087"/>
<path d="M73.3288 1.92127C72.0739 1.05844 70.4364 0.625977 68.4156 0.625977H60.6422C59.9899 0.625977 59.6313 0.935752 59.5666 1.55456L56.3889 21.5014C56.3559 21.6973 56.4047 21.8765 56.5355 22.0394C56.6649 22.2025 56.8287 22.2837 57.0243 22.2837H61.033C61.4241 22.2837 61.6847 22.0721 61.8153 21.6483L62.6954 15.9774C62.7277 15.7168 62.8419 15.5049 63.0376 15.3417C63.2333 15.1789 63.4774 15.0723 63.7711 15.0234C64.0642 14.975 64.3409 14.9507 64.6022 14.9507C64.8627 14.9507 65.1722 14.9671 65.5308 14.9995C65.8893 15.0321 66.1181 15.048 66.2152 15.048C69.0184 15.048 71.2181 14.2582 72.8154 12.677C74.4124 11.0965 75.2109 8.90474 75.2109 6.10137C75.2111 4.17876 74.5833 2.78544 73.3288 1.92127ZM68.3177 9.96378C67.6006 10.4526 66.525 10.6969 65.0912 10.6969L63.5266 10.7459L64.3579 5.51469C64.4224 5.1565 64.6342 4.97718 64.9933 4.97718H65.873C66.5898 4.97718 67.1602 5.00976 67.5846 5.07476C68.0077 5.14051 68.4156 5.34359 68.8067 5.6858C69.198 6.02815 69.3933 6.52531 69.3933 7.17714C69.3933 8.54595 69.0344 9.47468 68.3177 9.96378Z" fill="#009CDE"/>
</svg>
