<svg width="78" height="34" viewBox="0 0 78 34" fill="none" xmlns="http://www.w3.org/2000/svg">
<path d="M9.0293 6.49121H66.6431C72.4608 6.49121 77.1769 11.2074 77.1769 17.0251C77.1769 22.8428 72.4608 27.5589 66.6431 27.5589H9.0293V6.49121Z" fill="#5053FD"/>
<path fill-rule="evenodd" clip-rule="evenodd" d="M77.1769 17.0257C77.1769 22.8434 72.4608 27.5596 66.6431 27.5596H9.0293V17.0257H77.1769Z" fill="#151515"/>
<path d="M0 14.292C0 8.87855 1.51361e-07 6.17189 0.63912 5.26131C1.27822 4.35073 3.8232 3.47957 8.91319 1.73725L9.88292 1.40531C12.5362 0.497083 13.8628 0.0429688 15.2365 0.0429688C16.6101 0.0429688 17.9367 0.497083 20.5901 1.40531L21.5598 1.73725C26.6498 3.47957 29.1948 4.35073 29.8339 5.26131C30.473 6.17189 30.473 8.87855 30.473 14.292C30.473 15.1095 30.473 15.9962 30.473 16.9578C30.473 26.5026 23.2966 31.1347 18.794 33.1016C17.5727 33.635 16.9621 33.9018 15.2365 33.9018C13.5109 33.9018 12.9002 33.635 11.6789 33.1016C7.17631 31.1347 0 26.5026 0 16.9578C0 15.9962 0 15.1095 0 14.292Z" fill="#5053FD"/>
<path fill-rule="evenodd" clip-rule="evenodd" d="M9.8131 14.4788V11.9564C9.8131 10.5069 10.3873 9.11685 11.4093 8.09193C12.4313 7.06701 13.8174 6.49121 15.2628 6.49121C16.7081 6.49121 18.0942 7.06701 19.1163 8.09193C20.1383 9.11685 20.7124 10.5069 20.7124 11.9564V14.4788H21.1316C22.5208 14.4788 23.6469 15.6081 23.6469 17.0012V25.0365C23.6469 26.4297 22.5208 27.5589 21.1316 27.5589H9.39389C8.00477 27.5589 6.87866 26.4297 6.87866 25.0365V17.0012C6.87866 15.6081 8.00477 14.4788 9.39389 14.4788H9.8131ZM13.1878 9.87553C13.7381 9.32365 14.4845 9.01361 15.2628 9.01361C16.0411 9.01361 16.7874 9.32365 17.3377 9.87553C17.8881 10.4274 18.1972 11.1759 18.1972 11.9564V14.4788H12.3283V11.9564C12.3283 11.1759 12.6375 10.4274 13.1878 9.87553Z" fill="white"/>
<path d="M11.8237 21.1094L14.8334 23.3667L19.4554 17.8848" stroke="#5053FD" stroke-width="2.56544" stroke-linecap="round" stroke-linejoin="round"/>
<path d="M63.8022 15.5225L64.8664 9.1123H69.1858L68.998 10.2297H66.0339L65.7835 11.7571H68.5254L68.3376 12.8746H65.5957L65.3453 14.4051H68.322L68.1342 15.5225H63.8022Z" fill="white"/>
<path d="M57.6145 15.5225L58.6787 9.1123H61.2077C61.6918 9.1123 62.0904 9.19786 62.4034 9.36896C62.7185 9.54007 62.9397 9.78317 63.0669 10.0983C63.1963 10.4113 63.2266 10.7806 63.1577 11.2063C63.0868 11.6319 62.9334 11.9971 62.6976 12.3018C62.4639 12.6064 62.1592 12.8412 61.7836 13.006C61.4101 13.1688 60.9772 13.2502 60.4847 13.2502H58.7914L58.9792 12.1609H60.4503C60.709 12.1609 60.9302 12.1254 61.1138 12.0545C61.2975 11.9835 61.4425 11.8771 61.5489 11.7352C61.6574 11.5933 61.7284 11.417 61.7617 11.2063C61.7972 10.9913 61.7847 10.8119 61.7242 10.6679C61.6637 10.5218 61.5541 10.4112 61.3955 10.3361C61.2369 10.2589 61.0283 10.2203 60.7695 10.2203H59.8556L58.9698 15.5225H57.6145ZM61.5583 12.6054L62.6694 15.5225H61.1733L60.0966 12.6054H61.5583Z" fill="white"/>
<path d="M55.8557 9.1123H57.211L56.5224 13.2752C56.4452 13.7426 56.2668 14.1516 55.9872 14.5021C55.7076 14.8527 55.3518 15.1261 54.9198 15.3222C54.4879 15.5163 54.0059 15.6133 53.4738 15.6133C52.9417 15.6133 52.4931 15.5163 52.1279 15.3222C51.7627 15.1261 51.4988 14.8527 51.336 14.5021C51.1732 14.1516 51.1305 13.7426 51.2077 13.2752L51.8963 9.1123H53.2516L52.5786 13.1594C52.541 13.4035 52.5598 13.6205 52.6349 13.8104C52.7122 14.0003 52.8394 14.1495 53.0168 14.258C53.1942 14.3665 53.4133 14.4208 53.6741 14.4208C53.937 14.4208 54.1749 14.3665 54.3877 14.258C54.6027 14.1495 54.779 14.0003 54.9167 13.8104C55.0565 13.6205 55.1452 13.4035 55.1828 13.1594L55.8557 9.1123Z" fill="white"/>
<path d="M50.1927 11.3563H48.8406C48.8447 11.1768 48.8218 11.0182 48.7717 10.8805C48.7216 10.7407 48.6465 10.6218 48.5463 10.5237C48.4483 10.4256 48.3283 10.3515 48.1864 10.3014C48.0445 10.2493 47.8849 10.2232 47.7075 10.2232C47.3653 10.2232 47.0513 10.3088 46.7654 10.4799C46.4795 10.651 46.2385 10.8993 46.0424 11.2248C45.8462 11.5482 45.7106 11.9395 45.6355 12.3985C45.5624 12.8409 45.5666 13.2113 45.648 13.5097C45.7294 13.8081 45.8733 14.0334 46.0799 14.1858C46.2886 14.336 46.5484 14.4111 46.8593 14.4111C47.0513 14.4111 47.2338 14.3871 47.407 14.3391C47.5802 14.2891 47.7378 14.2181 47.8797 14.1263C48.0236 14.0324 48.1488 13.9187 48.2553 13.7851C48.3638 13.6516 48.4483 13.5003 48.5088 13.3313H49.8703C49.7848 13.6255 49.6512 13.9093 49.4697 14.1826C49.2902 14.456 49.068 14.7001 48.803 14.9151C48.538 15.1279 48.2365 15.2969 47.8984 15.4221C47.5604 15.5473 47.19 15.6099 46.7873 15.6099C46.2051 15.6099 45.7054 15.4764 45.288 15.2093C44.8728 14.9422 44.5733 14.5572 44.3897 14.0543C44.2061 13.5514 44.1717 12.9452 44.2864 12.2358C44.4012 11.5493 44.6255 10.9671 44.9594 10.4892C45.2953 10.0093 45.7033 9.6452 46.1832 9.39688C46.6652 9.14857 47.1806 9.02441 47.7294 9.02441C48.1113 9.02441 48.4566 9.07658 48.7654 9.18091C49.0743 9.28525 49.3372 9.43757 49.5542 9.63789C49.7733 9.83612 49.9381 10.0792 50.0487 10.3672C50.1593 10.6551 50.2073 10.9848 50.1927 11.3563Z" fill="white"/>
<path d="M38.1013 15.5225L39.1655 9.1123H43.4849L43.2971 10.2297H40.333L40.0826 11.7571H42.8245L42.6367 12.8746H39.8948L39.6444 14.4051H42.621L42.4332 15.5225H38.1013Z" fill="white"/>
<path d="M36.2028 10.9744C36.2133 10.7136 36.1371 10.5122 35.9744 10.3703C35.8137 10.2284 35.5706 10.1575 35.2451 10.1575C35.0239 10.1575 34.8319 10.1888 34.6691 10.2514C34.5064 10.3119 34.376 10.3964 34.2779 10.5049C34.1819 10.6113 34.1224 10.7344 34.0995 10.8742C34.0765 10.989 34.0838 11.0892 34.1214 11.1747C34.161 11.2603 34.2226 11.3343 34.3061 11.3969C34.3916 11.4575 34.4928 11.5107 34.6097 11.5566C34.7265 11.6004 34.8507 11.638 34.9821 11.6693L35.533 11.807C35.8022 11.8696 36.0443 11.953 36.2592 12.0574C36.4762 12.1617 36.6577 12.29 36.8038 12.4424C36.952 12.5947 37.0563 12.7741 37.1168 12.9807C37.1773 13.1873 37.1857 13.4241 37.1418 13.6912C37.0751 14.0835 36.9196 14.4236 36.6755 14.7116C36.4313 14.9975 36.111 15.2197 35.7146 15.3783C35.3181 15.5348 34.859 15.613 34.3374 15.613C33.8199 15.613 33.3827 15.5337 33.0259 15.3752C32.6691 15.2166 32.4093 14.9818 32.2465 14.6709C32.0859 14.3579 32.0379 13.9708 32.1026 13.5097H33.414C33.3911 13.7246 33.4224 13.9041 33.5079 14.048C33.5956 14.1899 33.726 14.2974 33.8992 14.3704C34.0724 14.4414 34.2758 14.4769 34.5095 14.4769C34.7411 14.4769 34.9467 14.4435 35.1261 14.3767C35.3077 14.3099 35.4548 14.2171 35.5675 14.0981C35.6801 13.9792 35.749 13.8425 35.774 13.6881C35.7991 13.5441 35.7772 13.4231 35.7083 13.325C35.6394 13.2269 35.5289 13.1435 35.3765 13.0746C35.2263 13.0037 35.0395 12.9411 34.8163 12.8868L34.1464 12.7115C33.6289 12.5801 33.2377 12.3745 32.9727 12.0949C32.7077 11.8153 32.6127 11.4387 32.6879 10.965C32.7546 10.5769 32.9164 10.2378 33.173 9.94776C33.4318 9.65563 33.7573 9.42923 34.1496 9.26855C34.5439 9.10579 34.9748 9.02441 35.4423 9.02441C35.918 9.02441 36.3197 9.10684 36.6473 9.27168C36.9749 9.43444 37.2138 9.66189 37.3641 9.95402C37.5143 10.2462 37.5602 10.5863 37.5018 10.9744H36.2028Z" fill="white"/>
<path d="M71.0472 20.1914L70.5021 23.4747H69.9025L68.8204 21.4082H68.7947L68.45 23.4747H67.7559L68.3009 20.1914H68.9101L69.9875 22.2563H70.0147L70.3562 20.1914H71.0472Z" fill="white"/>
<path d="M67.5091 21.8789C67.4492 22.2294 67.3333 22.5271 67.1612 22.7718C66.9902 23.0166 66.7812 23.2026 66.5344 23.3297C66.2885 23.4569 66.0235 23.5205 65.7392 23.5205C65.441 23.5205 65.184 23.4527 64.9681 23.3169C64.7532 23.1812 64.5977 22.9851 64.5015 22.7286C64.4053 22.471 64.3872 22.1605 64.447 21.7971C64.5047 21.4455 64.6196 21.1473 64.7917 20.9026C64.9638 20.6567 65.1738 20.4697 65.4218 20.3414C65.6697 20.2121 65.9364 20.1475 66.2217 20.1475C66.5178 20.1475 66.7732 20.2159 66.988 20.3527C67.2039 20.4895 67.3594 20.6872 67.4546 20.9458C67.5508 21.2034 67.5689 21.5144 67.5091 21.8789ZM66.8181 21.7971C66.8555 21.5716 66.8539 21.3824 66.8133 21.2296C66.7738 21.0757 66.7011 20.9592 66.5953 20.8801C66.4895 20.801 66.3559 20.7615 66.1945 20.7615C66.0192 20.7615 65.8584 20.8053 65.7119 20.8929C65.5666 20.9806 65.4437 21.1078 65.3432 21.2745C65.2438 21.4401 65.1749 21.6416 65.1364 21.8789C65.0979 22.1055 65.099 22.2946 65.1396 22.4464C65.1813 22.5982 65.2556 22.7131 65.3624 22.7911C65.4704 22.868 65.6045 22.9065 65.7648 22.9065C65.939 22.9065 66.0983 22.8638 66.2426 22.7783C66.3879 22.6917 66.5103 22.5661 66.6097 22.4015C66.7091 22.2359 66.7786 22.0344 66.8181 21.7971Z" fill="white"/>
<path d="M64.2004 20.1914L63.6554 23.4747H62.9612L63.5063 20.1914H64.2004Z" fill="white"/>
<path d="M60.2686 20.7637L60.3647 20.1914H63.0613L62.9651 20.7637H61.9599L61.511 23.4747H60.8249L61.2737 20.7637H60.2686Z" fill="white"/>
<path d="M57.0234 23.4747L57.5685 20.1914H58.8639C59.1118 20.1914 59.3154 20.239 59.4747 20.3341C59.635 20.4281 59.7472 20.5591 59.8113 20.7269C59.8765 20.8936 59.8915 21.086 59.8562 21.304C59.8199 21.5231 59.7408 21.716 59.619 21.8827C59.4982 22.0484 59.3411 22.1777 59.1476 22.2707C58.9542 22.3637 58.7308 22.4102 58.4775 22.4102H57.6519L57.7433 21.8539H58.4567C58.5913 21.8539 58.7062 21.8309 58.8013 21.785C58.8975 21.7379 58.974 21.6733 59.0306 21.591C59.0872 21.5076 59.1241 21.4119 59.1412 21.304C59.1594 21.1939 59.1535 21.0983 59.1236 21.017C59.0937 20.9358 59.0386 20.8728 58.9585 20.8279C58.8794 20.7819 58.773 20.7589 58.6394 20.7589H58.1713L57.7176 23.4747H57.0234Z" fill="white"/>
<path d="M54.1038 20.1914H54.8813L55.3959 21.6054H55.4312L56.4107 20.1914H57.1882L55.6396 22.314L55.4456 23.4747H54.7562L54.9502 22.314L54.1038 20.1914Z" fill="white"/>
<path d="M50.8972 23.4747L51.4423 20.1914H52.7377C52.9856 20.1914 53.1897 20.2352 53.3501 20.3229C53.5114 20.4105 53.6247 20.535 53.6899 20.6964C53.7562 20.8567 53.7717 21.0459 53.7364 21.2639C53.7001 21.482 53.6215 21.669 53.5008 21.825C53.3811 21.9811 53.225 22.1013 53.0326 22.1857C52.8413 22.2691 52.6196 22.3108 52.3673 22.3108H51.5L51.5962 21.7529H52.3497C52.4822 21.7529 52.5955 21.7347 52.6896 21.6984C52.7836 21.662 52.8579 21.6075 52.9124 21.5349C52.968 21.4622 53.0043 21.3719 53.0214 21.2639C53.0396 21.1538 53.0332 21.0619 53.0022 20.9882C52.9712 20.9134 52.9151 20.8567 52.8338 20.8182C52.7526 20.7787 52.6457 20.7589 52.5132 20.7589H52.0451L51.5914 23.4747H50.8972ZM52.9172 21.9805L53.4863 23.4747H52.72L52.1685 21.9805H52.9172Z" fill="white"/>
<path d="M50.7527 21.3418H50.0601C50.0623 21.2499 50.0505 21.1687 50.0249 21.0981C49.9992 21.0265 49.9607 20.9656 49.9094 20.9154C49.8592 20.8651 49.7977 20.8272 49.7251 20.8016C49.6524 20.7748 49.5706 20.7615 49.4798 20.7615C49.3045 20.7615 49.1436 20.8053 48.9972 20.8929C48.8508 20.9806 48.7274 21.1078 48.6269 21.2745C48.5264 21.4401 48.457 21.6405 48.4185 21.8757C48.3811 22.1023 48.3832 22.292 48.4249 22.4448C48.4666 22.5976 48.5403 22.7131 48.6461 22.7911C48.753 22.868 48.8861 22.9065 49.0453 22.9065C49.1436 22.9065 49.2372 22.8942 49.3259 22.8696C49.4146 22.844 49.4953 22.8076 49.568 22.7606C49.6417 22.7125 49.7058 22.6543 49.7603 22.5859C49.8159 22.5175 49.8592 22.44 49.8902 22.3534H50.5876C50.5437 22.5041 50.4753 22.6495 50.3824 22.7895C50.2904 22.9295 50.1766 23.0545 50.0409 23.1646C49.9051 23.2736 49.7507 23.3602 49.5776 23.4243C49.4044 23.4885 49.2147 23.5205 49.0084 23.5205C48.7103 23.5205 48.4543 23.4521 48.2405 23.3153C48.0278 23.1785 47.8745 22.9813 47.7804 22.7237C47.6864 22.4662 47.6687 22.1557 47.7275 21.7923C47.7863 21.4407 47.9012 21.1425 48.0722 20.8977C48.2443 20.6519 48.4532 20.4654 48.699 20.3382C48.9459 20.2111 49.2099 20.1475 49.491 20.1475C49.6866 20.1475 49.8635 20.1742 50.0216 20.2276C50.1798 20.2811 50.3145 20.3591 50.4256 20.4617C50.5379 20.5632 50.6223 20.6877 50.6789 20.8352C50.7356 20.9827 50.7602 21.1516 50.7527 21.3418Z" fill="white"/>
<path d="M47.4744 20.1914L46.9293 23.4747H46.3297L45.2476 21.4082H45.222L44.8773 23.4747H44.1831L44.7282 20.1914H45.3374L46.4147 22.2563H46.442L46.7834 20.1914H47.4744Z" fill="white"/>
<path d="M41.4182 23.4747L41.9633 20.1914H44.1757L44.0795 20.7637H42.5613L42.433 21.5461H43.8374L43.7412 22.1184H42.3368L42.2086 22.9024H43.7332L43.637 23.4747H41.4182Z" fill="white"/>
<path d="M37.8127 23.4747L38.3578 20.1914H39.052L38.6031 22.9024H40.0107L39.9145 23.4747H37.8127Z" fill="white"/>
<path d="M37.0197 21.1462C37.025 21.0126 36.986 20.9095 36.9027 20.8368C36.8204 20.7641 36.6958 20.7278 36.5291 20.7278C36.4158 20.7278 36.3175 20.7438 36.2341 20.7759C36.1508 20.8069 36.084 20.8502 36.0337 20.9058C35.9846 20.9603 35.9541 21.0233 35.9424 21.0949C35.9306 21.1537 35.9343 21.205 35.9536 21.2488C35.9739 21.2927 36.0054 21.3306 36.0482 21.3627C36.092 21.3937 36.1438 21.4209 36.2037 21.4444C36.2635 21.4669 36.3271 21.4861 36.3945 21.5021L36.6766 21.5727C36.8145 21.6047 36.9385 21.6475 37.0485 21.7009C37.1597 21.7544 37.2527 21.8201 37.3275 21.8981C37.4034 21.9761 37.4568 22.0681 37.4878 22.1739C37.5188 22.2797 37.5231 22.401 37.5006 22.5378C37.4664 22.7387 37.3868 22.9129 37.2618 23.0604C37.1367 23.2068 36.9727 23.3207 36.7696 23.4019C36.5665 23.482 36.3314 23.5221 36.0642 23.5221C35.7991 23.5221 35.5752 23.4815 35.3925 23.4003C35.2097 23.3191 35.0766 23.1988 34.9933 23.0396C34.911 22.8793 34.8864 22.681 34.9195 22.4448H35.5913C35.5795 22.5549 35.5955 22.6468 35.6394 22.7205C35.6842 22.7932 35.751 22.8483 35.8398 22.8857C35.9285 22.922 36.0327 22.9402 36.1524 22.9402C36.271 22.9402 36.3763 22.9231 36.4682 22.8889C36.5612 22.8547 36.6365 22.8071 36.6942 22.7462C36.752 22.6853 36.7872 22.6153 36.8001 22.5362C36.8129 22.4624 36.8017 22.4004 36.7664 22.3502C36.7311 22.3 36.6745 22.2572 36.5964 22.222C36.5195 22.1856 36.4238 22.1536 36.3095 22.1258L35.9664 22.036C35.7013 21.9687 35.501 21.8634 35.3652 21.7202C35.2295 21.5769 35.1809 21.384 35.2193 21.1414C35.2535 20.9426 35.3364 20.769 35.4678 20.6204C35.6003 20.4708 35.7671 20.3548 35.968 20.2725C36.17 20.1891 36.3907 20.1475 36.6301 20.1475C36.8738 20.1475 37.0795 20.1897 37.2473 20.2741C37.4151 20.3575 37.5375 20.474 37.6145 20.6236C37.6914 20.7732 37.7149 20.9474 37.685 21.1462H37.0197Z" fill="white"/>
<path d="M34.0646 21.1462C34.07 21.0126 34.0309 20.9095 33.9476 20.8368C33.8653 20.7641 33.7408 20.7278 33.574 20.7278C33.4607 20.7278 33.3624 20.7438 33.2791 20.7759C33.1957 20.8069 33.1289 20.8502 33.0787 20.9058C33.0295 20.9603 32.999 21.0233 32.9873 21.0949C32.9755 21.1537 32.9793 21.205 32.9985 21.2488C33.0188 21.2927 33.0503 21.3306 33.0931 21.3627C33.1369 21.3937 33.1887 21.4209 33.2486 21.4444C33.3084 21.4669 33.372 21.4861 33.4394 21.5021L33.7215 21.5727C33.8594 21.6047 33.9834 21.6475 34.0935 21.7009C34.2046 21.7544 34.2976 21.8201 34.3724 21.8981C34.4483 21.9761 34.5017 22.0681 34.5327 22.1739C34.5637 22.2797 34.568 22.401 34.5456 22.5378C34.5114 22.7387 34.4317 22.9129 34.3067 23.0604C34.1816 23.2068 34.0176 23.3207 33.8145 23.4019C33.6114 23.482 33.3763 23.5221 33.1091 23.5221C32.8441 23.5221 32.6202 23.4815 32.4374 23.4003C32.2546 23.3191 32.1216 23.1988 32.0382 23.0396C31.9559 22.8793 31.9313 22.681 31.9645 22.4448H32.6362C32.6244 22.5549 32.6405 22.6468 32.6843 22.7205C32.7292 22.7932 32.796 22.8483 32.8847 22.8857C32.9734 22.922 33.0776 22.9402 33.1973 22.9402C33.3159 22.9402 33.4212 22.9231 33.5131 22.8889C33.6061 22.8547 33.6815 22.8071 33.7392 22.7462C33.7969 22.6853 33.8321 22.6153 33.845 22.5362C33.8578 22.4624 33.8466 22.4004 33.8113 22.3502C33.776 22.3 33.7194 22.2572 33.6414 22.222C33.5644 22.1856 33.4688 22.1536 33.3544 22.1258L33.0113 22.036C32.7463 21.9687 32.5459 21.8634 32.4101 21.7202C32.2744 21.5769 32.2258 21.384 32.2643 21.1414C32.2985 20.9426 32.3813 20.769 32.5127 20.6204C32.6453 20.4708 32.812 20.3548 33.0129 20.2725C33.2149 20.1891 33.4356 20.1475 33.675 20.1475C33.9187 20.1475 34.1245 20.1897 34.2923 20.2741C34.4601 20.3575 34.5824 20.474 34.6594 20.6236C34.7363 20.7732 34.7598 20.9474 34.7299 21.1462H34.0646Z" fill="white"/>
</svg>
