<svg width="78" height="32" viewBox="0 0 78 32" fill="none" xmlns="http://www.w3.org/2000/svg">
<path fill-rule="evenodd" clip-rule="evenodd" d="M42.4797 4.72063L37.0987 5.83348V1.62941L42.4797 0.537109V4.72063ZM53.6704 7.04924C51.5695 7.04924 50.2189 7.99734 49.4685 8.65668L49.1897 7.37909H44.4734V31.4081L49.833 30.316L49.8544 24.4838C50.6262 25.0196 51.7624 25.7821 53.6488 25.7821C57.4863 25.7821 60.9807 22.8145 60.9807 16.2818C60.9593 10.3054 57.422 7.04924 53.6704 7.04924ZM52.3841 21.2483C51.1191 21.2483 50.3688 20.8156 49.8544 20.2797L49.833 12.6342C50.3904 12.0365 51.1622 11.6243 52.3841 11.6243C54.3349 11.6243 55.6855 13.7263 55.6855 16.426C55.6855 19.1876 54.3563 21.2483 52.3841 21.2483ZM77.8741 16.4879C77.8741 11.2122 75.2157 7.04924 70.1349 7.04924C65.0325 7.04924 61.9454 11.2122 61.9454 16.4466C61.9454 22.6498 65.5899 25.7821 70.8208 25.7821C73.3721 25.7821 75.3016 25.2257 76.7593 24.4427V20.321C75.3016 21.0216 73.6293 21.4544 71.5069 21.4544C69.4274 21.4544 67.5838 20.7538 67.3478 18.322H77.8313C77.8313 18.2084 77.839 17.9504 77.8479 17.6531C77.8598 17.2492 77.8741 16.7728 77.8741 16.4879ZM67.2836 14.53C67.2836 12.2014 68.7629 11.2328 70.1135 11.2328C71.4213 11.2328 72.8147 12.2014 72.8147 14.53H67.2836ZM37.0987 7.39964H42.4797V25.4319H37.0987V7.39964ZM30.9887 7.39964L31.3318 8.92471C32.5965 6.69902 35.1048 7.15234 35.7909 7.39964V12.1396C35.1262 11.9128 32.9824 11.6243 31.7177 13.2112V25.4319H26.3581V7.39964H30.9887ZM20.6126 2.92772L15.3817 3.99929L15.3603 20.5065C15.3603 23.5564 17.7398 25.8028 20.9128 25.8028C22.6707 25.8028 23.9571 25.4937 24.6644 25.1228V20.9392C23.9785 21.2071 20.5912 22.1552 20.5912 19.105V11.7892H24.6644V7.39964H20.5912L20.6126 2.92772ZM7.94273 11.5213C6.80649 11.5213 6.12038 11.8305 6.12038 12.6342C6.12038 13.5117 7.301 13.8976 8.76583 14.3765C11.1537 15.1574 14.2966 16.1849 14.3099 19.9913C14.3099 23.6801 11.2442 25.8028 6.78507 25.8028C4.9413 25.8028 2.92619 25.4524 0.932349 24.6282V19.7233C2.73325 20.6714 5.00555 21.372 6.78507 21.372C7.98557 21.372 8.84301 21.0629 8.84301 20.115C8.84301 19.1429 7.56321 18.6986 6.01812 18.1622C3.66497 17.3452 0.696533 16.3147 0.696533 12.8815C0.696533 9.23383 3.59069 7.04924 7.94273 7.04924C9.72206 7.04924 11.48 7.31727 13.2593 7.99734V12.8402C11.6301 11.9952 9.57195 11.5213 7.94273 11.5213Z" fill="#6772E5"/>
</svg>
