<svg width="68" height="32" viewBox="0 0 68 32" fill="none" xmlns="http://www.w3.org/2000/svg">
<path d="M18.0261 6.04395H24.864V7.35892H22.234V14.4598H20.6561V7.35892H18.0261V6.04395ZM24.4695 8.2794H25.7845V9.46287C25.7845 9.33138 25.916 9.19988 26.0475 8.93688C26.179 8.67389 26.3104 8.67389 26.4419 8.54239C26.5734 8.4109 26.8364 8.2794 26.9679 8.2794C27.0994 8.1479 27.3624 8.1479 27.6254 8.1479C27.7569 8.1479 27.8884 8.1479 27.8884 8.1479H28.0199V9.46287C27.8884 9.46287 27.8884 9.46287 27.7569 9.46287C27.6254 9.46287 27.6254 9.46287 27.4939 9.46287C27.2309 9.46287 27.0994 9.46287 26.8364 9.59437C26.5734 9.72587 26.4419 9.85737 26.3104 9.98886C26.179 10.1204 26.0475 10.3834 25.916 10.6463C25.7845 10.9093 25.7845 11.1723 25.7845 11.5668V14.4598H24.4695V8.2794ZM34.2003 14.4598H32.8853V13.6708C32.7538 13.9338 32.4908 14.1968 32.0963 14.4598C31.8333 14.5913 31.4388 14.7228 31.0444 14.7228C30.2554 14.7228 29.7294 14.5913 29.3349 14.0653C28.9404 13.5393 28.8089 13.0133 28.8089 12.2243V8.41089H30.1239V12.0928C30.1239 12.6188 30.2554 13.0133 30.3869 13.2763C30.6499 13.5393 30.9129 13.6708 31.3073 13.6708C31.5703 13.6708 31.8333 13.6708 31.9648 13.5393C32.0963 13.4078 32.3593 13.2763 32.3593 13.1448C32.4908 13.0133 32.6223 12.8818 32.6223 12.6188C32.6223 12.3558 32.7538 12.2243 32.7538 11.9613V8.41089H34.0688V14.4598H34.2003ZM36.4357 12.4873C36.4357 12.8818 36.5672 13.1448 36.8302 13.2763C37.0932 13.4078 37.3562 13.5393 37.7507 13.5393C37.8822 13.5393 38.0137 13.5393 38.1452 13.5393C38.2767 13.5393 38.4082 13.5393 38.5397 13.4078C38.6712 13.4078 38.8027 13.2763 38.9342 13.1448C39.0657 13.0133 39.0657 12.8818 39.0657 12.7503C39.0657 12.6188 38.9342 12.4873 38.9342 12.3558C38.8027 12.2243 38.6712 12.2243 38.5397 12.0928C38.4082 12.0928 38.1452 11.9613 37.8822 11.9613C37.6192 11.9613 37.3562 11.8298 37.2247 11.8298C36.9617 11.8298 36.6987 11.6983 36.5672 11.5668C36.4357 11.4353 36.1727 11.4353 35.9097 11.3038C35.7783 11.1723 35.5153 11.0408 35.5153 10.7778C35.3838 10.5149 35.3838 10.2519 35.3838 9.98886C35.3838 9.59437 35.5153 9.33138 35.6468 9.19988C35.7783 9.06838 36.0413 8.80539 36.3042 8.67389C36.5672 8.54239 36.8302 8.41089 37.0932 8.41089C37.3562 8.41089 37.7507 8.2794 38.0137 8.2794C38.2767 8.2794 38.6712 8.2794 38.9342 8.41089C39.1972 8.41089 39.4602 8.54239 39.7232 8.67389C39.9862 8.80539 40.1177 9.06838 40.2492 9.19988C40.3807 9.46287 40.5122 9.72587 40.5122 10.1204H39.0657C39.0657 9.85737 38.8027 9.59437 38.6712 9.46287C38.2767 9.33138 38.0137 9.19988 37.7507 9.19988C37.6192 9.19988 37.4877 9.19988 37.3562 9.19988C37.2247 9.19988 37.0932 9.19988 36.9617 9.33138C36.8302 9.33138 36.6987 9.46287 36.6987 9.46287C36.5672 9.59437 36.5672 9.59437 36.5672 9.72587C36.5672 9.85736 36.5672 9.98886 36.6987 10.1204C36.8302 10.2519 36.9617 10.2519 37.0932 10.3834C37.2247 10.3834 37.4877 10.5149 37.7507 10.5149C38.0137 10.5149 38.2767 10.6463 38.5397 10.6463C38.8027 10.6463 39.0657 10.7778 39.1972 10.9093C39.4602 11.0408 39.5917 11.0408 39.8547 11.1723C40.1177 11.3038 40.2492 11.4353 40.2492 11.6983C40.3807 11.9613 40.3807 12.0928 40.3807 12.4873C40.3807 12.8818 40.2492 13.1448 40.1177 13.4078C39.9862 13.6708 39.7232 13.8023 39.4602 14.0653C39.3287 14.3283 39.0657 14.4598 38.8027 14.4598C38.5397 14.4598 38.1452 14.5913 37.8822 14.5913C37.4877 14.5913 37.0932 14.5913 36.8302 14.4598C36.5672 14.3283 36.1727 14.1968 36.0412 14.0653C35.7783 13.9338 35.6468 13.6708 35.5153 13.4078C35.2523 13.1448 35.1208 12.8818 35.1208 12.4873H36.4357ZM40.9066 8.2794H41.9586V6.56993H43.2736V8.41089H44.4571V9.46287H43.2736V12.7503C43.2736 12.8818 43.2736 13.0133 43.2736 13.1448C43.2736 13.2763 43.2736 13.2763 43.4051 13.4078C43.5366 13.5393 43.5366 13.5393 43.5366 13.5393C43.6681 13.5393 43.7996 13.5393 43.9311 13.5393C44.0626 13.5393 44.0626 13.5393 44.1941 13.5393C44.3256 13.5393 44.3256 13.5393 44.4571 13.5393V14.4598C44.3256 14.4598 44.1941 14.4598 44.0626 14.4598C43.9311 14.4598 43.7996 14.4598 43.6681 14.4598C43.2736 14.4598 43.0106 14.4598 42.8791 14.3283C42.6161 14.3283 42.4846 14.1968 42.3531 14.0653C42.2216 13.9338 42.0901 13.8023 42.0901 13.5393C42.0901 13.4078 41.9586 13.1448 41.9586 12.8818V9.33138H40.9066V8.2794ZM45.3776 8.2794H46.6925V9.19988C46.824 8.80539 47.087 8.54239 47.4815 8.41089C47.876 8.2794 48.139 8.1479 48.5335 8.1479C49.0595 8.1479 49.454 8.2794 49.8485 8.41089C50.243 8.54239 50.5059 8.80539 50.7689 9.06838C51.0319 9.33138 51.1634 9.72587 51.2949 10.1204C51.4264 10.5149 51.4264 10.9093 51.4264 11.4353C51.4264 11.8298 51.4264 12.2243 51.2949 12.6188C51.1634 13.0133 51.0319 13.2763 50.7689 13.6708C50.5059 13.9338 50.243 14.1968 49.98 14.3283C49.5855 14.4598 49.3225 14.5913 48.7965 14.5913C48.665 14.5913 48.402 14.5913 48.2705 14.5913C48.139 14.5913 47.876 14.4598 47.7445 14.4598C47.613 14.3283 47.35 14.3283 47.2185 14.1968C47.087 14.0653 46.9555 13.9338 46.824 13.8023V16.8267H45.5091V8.2794H45.3776ZM50.1115 11.4353C50.1115 11.1723 50.1115 10.9093 49.98 10.6463C49.8485 10.3834 49.8485 10.1204 49.717 9.98886C49.5855 9.85737 49.454 9.59437 49.191 9.46287C48.928 9.33138 48.7965 9.33138 48.402 9.33138C47.876 9.33138 47.35 9.46287 47.087 9.85737C46.824 10.2519 46.6925 10.7778 46.6925 11.4353C46.6925 11.6983 46.6925 12.0928 46.824 12.2243C46.9555 12.4873 46.9555 12.7503 47.2185 12.8818C47.35 13.0133 47.4815 13.2763 47.7445 13.2763C48.0075 13.4078 48.139 13.4078 48.402 13.4078C48.665 13.4078 48.928 13.4078 49.191 13.2763C49.454 13.1448 49.5855 13.0133 49.717 12.7503C49.8485 12.4873 49.98 12.3558 49.98 12.0928C49.98 11.9613 50.1115 11.6983 50.1115 11.4353ZM52.4784 6.04395H53.7934V7.35892H52.4784V6.04395ZM52.4784 8.2794H53.7934V14.4598H52.4784V8.2794ZM54.9768 6.04395H56.2918V14.4598H54.9768V6.04395ZM60.3682 14.5913C59.8423 14.5913 59.4478 14.4598 59.0533 14.3283C58.6588 14.1968 58.3958 13.9338 58.1328 13.6708C57.8698 13.4078 57.6068 13.0133 57.4753 12.6188C57.3438 12.2243 57.2123 11.8298 57.2123 11.3038C57.2123 10.7778 57.3438 10.3834 57.4753 9.98886C57.6068 9.59437 57.8698 9.19988 58.1328 8.93688C58.3958 8.67389 58.6588 8.41089 59.0533 8.2794C59.4478 8.1479 59.8423 8.0164 60.3682 8.0164C60.8942 8.0164 61.2887 8.1479 61.6832 8.2794C62.0777 8.41089 62.3407 8.67389 62.6037 8.93688C62.8667 9.19988 63.1297 9.59437 63.2612 9.98886C63.3927 10.3834 63.5242 10.7778 63.5242 11.3038C63.5242 11.8298 63.3927 12.2243 63.2612 12.6188C63.1297 13.0133 62.8667 13.4078 62.6037 13.6708C62.3407 13.9338 62.0777 14.1968 61.6832 14.3283C61.2887 14.4598 60.8942 14.5913 60.3682 14.5913ZM60.3682 13.5393C60.6312 13.5393 60.8942 13.5393 61.1572 13.4078C61.4202 13.2763 61.5517 13.1448 61.6832 12.8818C61.8147 12.6188 61.9462 12.4873 61.9462 12.2243C61.9462 11.9613 62.0777 11.6983 62.0777 11.4353C62.0777 11.1723 62.0777 10.9093 61.9462 10.6463C61.9462 10.3834 61.8147 10.1204 61.6832 9.98886C61.5517 9.85737 61.4202 9.59437 61.1572 9.46287C60.8942 9.33138 60.6312 9.33138 60.3682 9.33138C60.1052 9.33138 59.8423 9.33138 59.5793 9.46287C59.3163 9.59437 59.1848 9.72587 59.0533 9.98886C58.9218 10.2519 58.7903 10.3834 58.7903 10.6463C58.7903 10.9093 58.6588 11.1723 58.6588 11.4353C58.6588 11.6983 58.6588 11.9613 58.7903 12.2243C58.7903 12.4873 58.9218 12.7503 59.0533 12.8818C59.1848 13.1448 59.3163 13.2763 59.5793 13.4078C59.8423 13.4078 60.1052 13.5393 60.3682 13.5393ZM63.9187 8.2794H64.9706V6.56993H66.2856V8.41089H67.4691V9.46287H66.2856V12.7503C66.2856 12.8818 66.2856 13.0133 66.2856 13.1448C66.2856 13.2763 66.2856 13.2763 66.4171 13.4078C66.5486 13.5393 66.5486 13.5393 66.5486 13.5393C66.6801 13.5393 66.8116 13.5393 66.9431 13.5393C67.0746 13.5393 67.0746 13.5393 67.2061 13.5393C67.3376 13.5393 67.3376 13.5393 67.4691 13.5393V14.4598C67.3376 14.4598 67.2061 14.4598 67.0746 14.4598C66.9431 14.4598 66.8116 14.4598 66.6801 14.4598C66.2856 14.4598 66.0226 14.4598 65.8911 14.3283C65.6281 14.3283 65.4966 14.1968 65.3651 14.0653C65.2336 13.9338 65.1021 13.8023 65.1021 13.5393C65.1021 13.4078 64.9706 13.1448 64.9706 12.8818V9.33138H63.9187V8.2794Z" fill="black"/>
<path d="M16.447 6.04433H10.2666L8.42563 0.126953L6.45317 6.04433H0.404297L5.2697 9.59475L3.42873 15.5121L8.42563 11.8302L13.291 15.5121L11.4501 9.59475L16.447 6.04433Z" fill="#00B67A"/>
<path d="M11.8445 10.9097L11.45 9.59473L8.42554 11.8302L11.8445 10.9097Z" fill="#005128"/>
<path d="M13.0285 19.1934H0.404785V31.8171H13.0285V19.1934Z" fill="#00B67A"/>
<path d="M26.5732 19.1934H13.9495V31.8171H26.5732V19.1934Z" fill="#00B67A"/>
<path d="M40.2485 19.1934H27.6248V31.8171H40.2485V19.1934Z" fill="#00B67A"/>
<path d="M53.7946 19.1934H41.1709V31.8171H53.7946V19.1934Z" fill="#00B67A"/>
<path d="M60.8425 19.3545H55.0256V30.9882H60.8425V19.3545Z" fill="#FCFCFC"/>
<path d="M54.8459 19.1934H61.1578V31.6856H54.8459V19.1934Z" fill="#00B67A"/>
<path d="M6.58526 27.6097L8.55772 27.0837L9.3467 29.5822L6.58526 27.6097ZM11.0562 24.4538H7.63724L6.58526 21.2979L5.53328 24.4538H2.24585L5.00729 26.4262L3.95531 29.5822L6.71676 27.6097L8.42622 26.4262L11.0562 24.4538Z" fill="white"/>
<path d="M20.2626 27.6097L22.235 27.0837L23.024 29.5822L20.2626 27.6097ZM24.602 24.4538H21.183L20.1311 21.2979L19.0791 24.4538H15.6602L18.4216 26.4262L17.3696 29.5822L20.1311 27.6097L21.8405 26.4262L24.602 24.4538Z" fill="white"/>
<path d="M33.9378 27.6097L35.9103 27.0837L36.6993 29.5822L33.9378 27.6097ZM38.2773 24.4538H34.8583L33.8064 21.2979L32.7544 24.4538H29.3354L32.0969 26.4262L31.1764 29.5822L33.9378 27.6097L35.6473 26.4262L38.2773 24.4538Z" fill="white"/>
<path d="M47.4814 27.6097L49.4539 27.0837L50.2428 29.5822L47.4814 27.6097ZM51.9523 24.4538H48.5334L47.4814 21.2979L46.4294 24.4538H43.0105L45.7719 26.4262L44.72 29.5822L47.4814 27.6097L49.1909 26.4262L51.9523 24.4538Z" fill="white"/>
<path d="M61.1582 27.6097L63.1306 27.0837L63.9196 29.5822L61.1582 27.6097ZM65.4976 24.4538H62.0786L61.0267 21.2979L60.1062 24.4538H56.6873L59.4487 26.4262L58.3967 29.5822L61.1582 27.6097L62.8676 26.4262L65.4976 24.4538Z" fill="white"/>
</svg>
