<svg width="78" height="24" viewBox="0 0 78 24" fill="none" xmlns="http://www.w3.org/2000/svg">
<path d="M27.4827 23.2843L31.4028 0.854059H37.6731L33.75 23.2843H27.4827ZM56.4039 1.33759C55.1619 0.883162 53.2152 0.395508 50.7843 0.395508C44.5883 0.395508 40.2242 3.43773 40.1868 7.79786C40.1519 11.0209 43.3027 12.819 45.681 13.8918C48.1219 14.9916 48.9423 15.6926 48.9305 16.6742C48.9149 18.1778 46.9814 18.8644 45.179 18.8644C42.6695 18.8644 41.3362 18.5244 39.2769 17.6873L38.4686 17.3308L37.5888 22.352C39.0534 22.9784 41.7615 23.5206 44.5736 23.5488C51.1649 23.5488 55.4438 20.5413 55.4924 15.8851C55.5158 13.3334 53.8454 11.3918 50.2277 9.79076C48.0361 8.75312 46.6939 8.06071 46.7081 7.01001C46.7081 6.07767 47.8442 5.0807 50.2993 5.0807C52.3494 5.04965 53.835 5.48563 54.9923 5.94005L55.5541 6.19889L56.4039 1.33759ZM72.5396 0.853714H67.6946C66.1937 0.853714 65.0703 1.25314 64.4112 2.71381L55.0989 23.2695H61.6833C61.6833 23.2695 62.7596 20.5058 63.0031 19.8988C63.7226 19.8988 70.1191 19.9084 71.0335 19.9084C71.221 20.6938 71.7964 23.2695 71.7964 23.2695H77.6147L72.5396 0.853714ZM64.8523 15.3378C65.371 14.0455 67.3506 9.06753 67.3506 9.06753C67.3137 9.12722 67.8654 7.76887 68.1819 6.92671L68.6056 8.8606C68.6056 8.8606 69.8063 14.2148 70.0573 15.3375L64.8523 15.3378ZM22.1597 0.853714L16.0209 16.1502L15.3669 13.0418C14.224 9.45836 10.6635 5.57603 6.68294 3.63241L12.2962 23.2486L18.9304 23.2414L28.802 0.853485L22.1597 0.853714Z" fill="#0A378C"/>
<path d="M10.2927 0.852263H0.181707L0.101562 1.31895C7.96779 3.17561 13.1726 7.66247 15.3336 13.0543L13.1351 2.74662C12.7556 1.32628 11.6545 0.901762 10.2927 0.852263Z" fill="#F2AE14"/>
</svg>
